<svg width="30" height="22" viewBox="0 0 30 22" fill="none" xmlns="http://www.w3.org/2000/svg">
<path d="M28.5208 9.00564C28.8829 9.46119 29.0833 10.053 29.0833 10.6667C29.0833 11.2803 28.8829 11.8722 28.5208 12.3277C26.228 15.1292 21.009 20.5833 14.9167 20.5833C8.82432 20.5833 3.60542 15.1292 1.31259 12.3277C0.950456 11.8722 0.75 11.2803 0.75 10.6667C0.75 10.053 0.950456 9.46119 1.31259 9.00564C3.60542 6.20417 8.82432 0.75 14.9167 0.75C21.009 0.75 26.228 6.20417 28.5208 9.00564Z" stroke="#98989A" stroke-width="1.5" stroke-linecap="round" stroke-linejoin="round"/>
<path d="M14.9174 15.0738C17.3294 15.0738 19.2847 13.1006 19.2847 10.6665C19.2847 8.23237 17.3294 6.25912 14.9174 6.25912C12.5054 6.25912 10.5501 8.23237 10.5501 10.6665C10.5501 13.1006 12.5054 15.0738 14.9174 15.0738Z" stroke="#98989A" stroke-width="1.5" stroke-linecap="round" stroke-linejoin="round"/>
</svg>
